<?xml version="1.0" encoding="UTF-8"?>
<svg width="21px" height="21px" viewBox="0 0 21 21" version="1.1" xmlns="http://www.w3.org/2000/svg" xmlns:xlink="http://www.w3.org/1999/xlink">
    <title>Allergies</title>
    <defs>
        <filter id="filter-1">
            <feColorMatrix in="SourceGraphic" type="matrix" values="0 0 0 0 0.015686 0 0 0 0 0.733333 0 0 0 0 0.749020 0 0 0 1.000000 0"></feColorMatrix>
        </filter>
    </defs>
    <g id="Allergies" stroke="none" stroke-width="1" fill="none" fill-rule="evenodd">
        <circle id="Oval" stroke="#04BBBF" stroke-width="0.5" cx="10.5" cy="10.5" r="10.25"></circle>
        <g filter="url(#filter-1)" id="noun_allergy_1957348">
            <g transform="translate(3.000000, 3.000000)">
                <path d="M14.9312624,0.0687375934 C14.887302,0.024728288 14.8276496,0 14.7654456,0 C14.7032417,0 14.6435892,0.024728288 14.5996289,0.0687375934 L0.0686889049,14.5996775 C0.00944827303,14.6589182 -0.0136878289,14.7452633 0.00799574527,14.8261875 C0.0296793194,14.9071117 0.0928883188,14.9703207 0.173812524,14.9920043 C0.254736729,15.0136878 0.341081827,14.9905517 0.400322454,14.9313111 L14.9312624,0.400371142 C14.9752717,0.35641077 15,0.296758333 15,0.234554368 C15,0.172350403 14.9752717,0.112697966 14.9312624,0.0687375934 Z" id="Path" fill="#000000" fill-rule="nonzero"></path>
                <path d="M12.1289416,11.814652 C12.3560827,11.4386946 12.297946,10.956106 11.988037,10.6450119 L11.22897,9.88042221 L11.6494113,9.45944277 C11.6920866,9.41676041 11.7160653,9.35884217 11.7160653,9.29844658 C11.7160653,9.238051 11.6920866,9.18013276 11.6494113,9.1374504 L9.58470381,7.06782448 L9.58470381,7.06782448 L9.57447686,7.05872222 C9.49842636,6.98991286 9.38578608,6.98059183 9.29948555,7.03596657 L9.29039493,7.04393105 C9.28115773,7.05047547 9.27242159,7.05770152 9.26425939,7.06554891 L8.29042652,8.03721496 C8.23277866,8.09453011 8.21004803,8.17828563 8.23079703,8.25693162 C8.25154602,8.3355776 8.31262239,8.39716587 8.39101924,8.4184967 C8.46941609,8.43982753 8.55322309,8.41766027 8.61087094,8.36034512 L9.42675425,7.55024415 L11.1687447,9.29673991 L9.29834922,11.1695295 L7.3881823,9.25691753 C7.29938023,9.16800179 7.15540363,9.16800179 7.06660155,9.25691753 C6.97779948,9.34583327 6.97779948,9.48999417 7.06660155,9.57890991 L9.13812701,11.6519492 C9.18075481,11.6946791 9.23859901,11.7186884 9.29891738,11.7186884 C9.35923576,11.7186884 9.41707996,11.6946791 9.45970776,11.6519492 L9.88014902,11.2309697 L10.6392159,11.9910083 C10.9510953,12.3038302 11.4365225,12.3617043 11.8130425,12.1309555 L14.6118177,14.9333132 C14.7006198,15.0222289 14.8445964,15.0222289 14.9333984,14.9333132 C15.0222005,14.8443975 15.0222005,14.7002366 14.9333984,14.6113208 L12.1289416,11.814652 Z M10.9607967,11.6690159 L10.2017298,10.9044262 L10.9039803,10.2012768 L11.6630472,10.9613153 C11.8488262,11.1582775 11.8444144,11.4674799 11.6530916,11.6590476 C11.4617689,11.8506152 11.1529617,11.8550327 10.9562514,11.6690159 L10.9607967,11.6690159 Z" id="Shape" fill="#000000" fill-rule="nonzero"></path>
                <path d="M0.227082173,2.91927151 C0.287462689,2.9190169 0.345277378,2.89482211 0.387845484,2.85199387 L0.945386326,2.29438772 L2.31358471,3.66274638 L1.89172354,4.08465696 L1.03431922,4.94672292 C0.976680351,5.00436854 0.95416981,5.08838887 0.975267101,5.16713425 C0.996364391,5.24587963 1.05786433,5.30738678 1.13660049,5.32848654 C1.21533665,5.3495863 1.29934714,5.32707312 1.35698601,5.2694275 L2.05134669,4.57156459 L5.41711472,7.93316569 C5.50621669,8.0222781 5.65067953,8.0222781 5.7397815,7.93316569 C5.82888348,7.84405328 5.82888348,7.69957352 5.7397815,7.61046111 L2.37743397,4.24886 L2.79929514,3.82694942 L3.82544393,2.80068042 L4.2473051,2.37876984 L6.2197911,4.3514869 L5.41255406,5.15881851 C5.32345208,5.24793092 5.32345208,5.39241068 5.41255406,5.4815231 C5.50165603,5.57063551 5.64611887,5.57063551 5.73522084,5.4815231 L6.54929888,4.66848999 L7.46143114,5.5807291 L6.63937194,6.37893832 C6.54964027,6.46742096 6.54861933,6.61190072 6.63709161,6.7016429 C6.72556389,6.79138508 6.87002673,6.79240614 6.9597584,6.7039235 L7.94144074,5.73580975 L7.94144074,5.73580975 C7.94144074,5.73580975 7.95056206,5.72440676 7.95512272,5.71870526 C7.96037376,5.71288255 7.96532105,5.70679287 7.96994487,5.70046048 C7.9740953,5.69381902 7.97790089,5.68696815 7.98134653,5.6799351 C7.98134653,5.67423361 7.98818752,5.66739181 7.99160801,5.66169032 C7.99474917,5.6534888 7.99741399,5.64511265 7.99958917,5.63660374 C7.99958917,5.63660374 7.99958917,5.62520075 7.99958917,5.61949926 C8.00013694,5.61038509 8.00013694,5.60124625 7.99958917,5.59213209 C7.99958917,5.59213209 7.99958917,5.5807291 7.99958917,5.5761679 C8.00009221,5.56743285 8.00009221,5.55867608 7.99958917,5.54994103 C7.99958917,5.54423953 7.99958917,5.53853804 7.99958917,5.53283654 C7.99774664,5.5247358 7.99546291,5.51674179 7.99274818,5.50889027 C7.99274818,5.50318877 7.99274818,5.49634698 7.99274818,5.49064549 C7.98904468,5.4824224 7.98485672,5.47442626 7.98020636,5.46669921 C7.98020636,5.45985742 7.97450553,5.45415592 7.96994487,5.44845443 C7.96538421,5.44275293 7.96082355,5.43705144 7.95512272,5.43020965 C7.95083863,5.42429227 7.9462727,5.41858419 7.94144074,5.41310516 L7.94144074,5.41310516 L4.57681288,2.04580256 L5.27573422,1.34679935 C5.36483618,1.25768694 5.36483618,1.11320718 5.27573421,1.02409477 C5.18663224,0.934982364 5.04216941,0.934982361 4.95306743,1.02409476 L4.09338278,1.88388012 L3.67152161,2.30579071 L2.30332322,0.937432048 L2.86086407,0.379825895 C2.94181636,0.289014053 2.9372399,0.150639834 2.85046425,0.0653765779 C2.7636886,-0.0198866785 2.62527126,-0.0220140553 2.53591695,0.0605422078 L1.81647263,0.778930504 L0.790323842,1.8051995 L0.066318863,2.53042959 C0.00150483752,2.59563643 -0.0178183737,2.69339093 0.0173106112,2.77835821 C0.0524395961,2.8633255 0.135149345,2.91888547 0.227082173,2.91927151 Z M1.97837611,1.26355753 L3.34657449,2.63191619 L2.63739166,3.34118209 L1.26919328,1.97282343 L1.97837611,1.26355753 Z" id="Shape" fill="#000000" fill-rule="nonzero"></path>
            </g>
        </g>
    </g>
</svg>