<?xml version="1.0" encoding="UTF-8"?>
<svg width="21px" height="19px" viewBox="0 0 21 19" version="1.1" xmlns="http://www.w3.org/2000/svg" xmlns:xlink="http://www.w3.org/1999/xlink">
    <title>Family</title>
    <defs>
        <filter id="filter-1">
            <feColorMatrix in="SourceGraphic" type="matrix" values="0 0 0 0 0.015686 0 0 0 0 0.733333 0 0 0 0 0.749020 0 0 0 1.000000 0"></feColorMatrix>
        </filter>
    </defs>
    <g id="Family" stroke="none" stroke-width="1" fill="none" fill-rule="evenodd">
        <g filter="url(#filter-1)" id="Group">
            <g>
                <path d="M15.2686968,0.2679 C16.9005116,0.2679 18.2320292,1.65571846 18.2320292,3.36004769 C18.2320292,5.06437692 16.9005116,6.45507462 15.2686968,6.45507462 C13.636882,6.45507462 12.305363,5.06437692 12.305363,3.36004769 C12.305363,1.65571846 13.636882,0.2679 15.2686968,0.2679 Z M15.2686968,1.03878846 C14.0371602,1.03878846 13.0461968,2.07379154 13.0461968,3.36004769 C13.0461968,4.64631846 14.0371602,5.68130692 15.2686968,5.68130692 C16.5002348,5.68130692 17.4911954,4.64631846 17.4911954,3.36004769 C17.4911954,2.07379154 16.5002348,1.03878846 15.2686968,1.03878846 Z" id="Shape" fill="#000000" fill-rule="nonzero"></path>
                <path d="M15.5125586,7.23515615 C15.3079851,7.23515615 15.1421424,7.4082843 15.1421424,7.62185 C15.1421424,7.72441048 15.1811647,7.82277123 15.2506315,7.8952934 C15.3200982,7.96781556 15.4143165,8.00855832 15.5125586,8.00855846 C18.0704454,8.14155846 20.0841676,10.3109931 20.0841676,12.9956054 L20.0841676,14.1889369 L17.8566038,14.1889369 C17.6520302,14.1889369 17.4861876,14.3620708 17.4861876,14.5756308 C17.4861876,14.7891908 17.6520302,14.9623246 17.8566038,14.9623246 L20.4560328,14.9623246 C20.6594514,14.96155 20.82416,14.7895269 20.8250014,14.5771362 L20.8250014,12.9956054 C20.8250014,9.89199923 18.4689218,7.36824385 15.5125586,7.23515615 L15.5125586,7.23515615 Z" id="Path" fill="#000000" fill-rule="nonzero"></path>
                <path d="M5.6382242,0.2679 C7.270039,0.2679 8.601558,1.65571846 8.601558,3.36004769 C8.601558,5.06437692 7.270039,6.45507462 5.6382242,6.45507462 C4.0064108,6.45507462 2.6748918,5.06437692 2.6748918,3.36004769 C2.6748918,1.65571846 4.0064108,0.2679 5.6382242,0.2679 Z M5.6382242,1.03878846 C4.4066876,1.03878846 3.4157256,2.07379154 3.4157256,3.36004769 C3.4157256,4.64631846 4.4066876,5.68130692 5.6382242,5.68130692 C6.8697622,5.68130692 7.8607242,4.64631846 7.8607242,3.36004769 C7.8607242,2.07379154 6.8697622,1.03878846 5.6382242,1.03878846 Z" id="Shape" fill="#000000" fill-rule="nonzero"></path>
                <path d="M5.39627606,7.23515615 C2.4390471,7.36727923 0.08166718,9.89135615 0.08166718,12.9956054 L0.08166718,14.5771362 C0.08240806,14.7898192 0.24765832,14.9619008 0.45136154,14.9623246 L3.05006422,14.9623246 C3.25463796,14.9623246 3.42048084,14.7891908 3.42048084,14.5756308 C3.42048084,14.3620708 3.25463796,14.1889369 3.05006422,14.1889369 L0.82322282,14.1889369 L0.82322282,12.9956054 C0.82322282,10.3097362 2.83666712,8.13964385 5.39627606,8.00855846 C5.49451827,8.00855843 5.5887366,7.96781573 5.65820345,7.89529355 C5.72767031,7.82277137 5.76669268,7.72441055 5.76669268,7.62185 C5.76669268,7.40828413 5.60084968,7.23515615 5.39627606,7.23515615 L5.39627606,7.23515615 Z" id="Path" fill="#000000" fill-rule="nonzero"></path>
                <path d="M7.4910332,8.00187923 C6.268269,8.00187923 5.2685346,9.04620692 5.2685346,10.3235038 C5.2685346,11.6008008 6.268269,12.6422638 7.4910332,12.6422638 C8.7137974,12.6422638 9.7135346,11.6008008 9.7135346,10.3235038 C9.7135346,9.04620692 8.7137974,8.00187923 7.4910332,8.00187923 Z M7.4910332,8.77576385 C8.3135206,8.77576385 8.9727008,9.46433846 8.9727008,10.3235038 C8.9727008,11.1826692 8.3135206,11.8712585 7.4910332,11.8712585 C6.6685472,11.8712585 6.009367,11.1826692 6.009367,10.3235038 C6.009367,9.46433846 6.6685472,8.77576385 7.4910332,8.77576385 Z" id="Shape" fill="#000000" fill-rule="nonzero"></path>
                <path d="M7.4896668,13.4156515 C5.0333934,13.4156515 3.0460332,15.4925854 3.0460332,18.0560362 L3.0460332,18.4412977 C3.04565439,18.5438639 3.08433794,18.6423856 3.15357314,18.7151799 C3.22280834,18.7879743 3.31692117,18.8290757 3.4151992,18.8294413 L11.564133,18.8294413 C11.6628851,18.829835 11.757702,18.7890685 11.8275294,18.7161915 C11.8973569,18.6433144 11.9364154,18.5443587 11.9360346,18.4412977 L11.9360346,18.0560362 C11.9360346,15.4925854 9.9459402,13.4156515 7.4896668,13.4156515 Z M7.4896668,14.1890392 C9.548308,14.1890392 11.1949698,15.90756 11.1949698,18.0560362 L3.787098,18.0560362 C3.787098,15.90756 5.4310256,14.1890392 7.4896668,14.1890392 Z" id="Shape" fill="#000000" fill-rule="nonzero"></path>
                <path d="M13.4177918,8.00187923 C12.1942758,8.00187923 11.193924,9.04620692 11.193924,10.3235038 C11.193924,11.6008008 12.1942758,12.6422638 13.4177918,12.6422638 C14.6413092,12.6422638 15.638924,11.6008008 15.638924,10.3235038 C15.638924,9.04620692 14.6413092,8.00187923 13.4177918,8.00187923 Z M13.4177918,8.77576385 C14.2407846,8.77576385 14.9003708,9.46433846 14.9003708,10.3235038 C14.9003708,11.1826692 14.2407846,11.8712585 13.4177918,11.8712585 C12.594799,11.8712585 11.9352142,11.1826692 11.9352142,10.3235038 C11.9352142,9.46433846 12.594799,8.77576385 13.4177918,8.77576385 Z" id="Shape" fill="#000000" fill-rule="nonzero"></path>
                <path d="M13.4181152,13.4155346 C12.7182398,13.4155346 12.0551122,13.5833631 11.4661904,13.8837969 C11.289046,13.9904892 11.2281644,14.2267323 11.3301804,14.4117338 C11.4325778,14.5968523 11.647846,14.6389592 11.8366066,14.5529185 C12.3154591,14.3189262 12.8508702,14.1888785 13.4181152,14.1888785 C15.476755,14.1888785 17.1201114,15.9073846 17.1201114,18.0558608 L13.0469738,18.0558608 C12.8423988,18.0558608 12.6765562,18.2289946 12.6765562,18.4425546 C12.6765562,18.6561292 12.8423988,18.8292631 13.0469738,18.8292631 L17.4919738,18.8292631 C17.6968652,18.8288685 17.8625006,18.6548723 17.8616707,18.4410492 L17.8616707,18.0558608 C17.8616707,15.49241 15.8743858,13.4154762 13.4181152,13.4154762 L13.4181152,13.4155346 Z" id="Path" fill="#000000" fill-rule="nonzero"></path>
            </g>
        </g>
    </g>
</svg>