<?xml version="1.0" encoding="UTF-8"?>
<svg width="20px" height="15px" viewBox="0 0 20 15" version="1.1" xmlns="http://www.w3.org/2000/svg" xmlns:xlink="http://www.w3.org/1999/xlink">
    <title>Folder médico</title>
    <g id="Folder-médico" stroke="none" stroke-width="1" fill="none" fill-rule="evenodd">
        <g id="Group-4" fill="#04BBBF" fill-rule="nonzero">
            <path d="M12.5726154,7.84615385 L11.1538462,7.84615385 L11.1538462,6.44030769 C11.1538462,6.20423077 10.9523846,6 10.7163077,6 L9.27884615,6 C9.04276923,6 8.84615385,6.22546154 8.84615385,6.46153846 L8.84615385,7.84615385 L7.46153846,7.84615385 C7.19707692,7.84615385 7,8.05638462 7,8.29269231 L7,9.726 C7,9.96184615 7.22546154,10.1538462 7.46153846,10.1538462 L8.84615385,10.1538462 L8.84615385,11.5384615 C8.84615385,11.7743077 9.052,12 9.28830769,12 L10.7068462,12 C10.9426923,12 11.1538462,11.7819231 11.1538462,11.5458462 L11.1538462,10.1538462 L12.5723846,10.1538462 C12.8082308,10.1538462 13,9.957 13,9.72115385 L13,8.25830769 C13,8.022 12.8086923,7.84615385 12.5726154,7.84615385 Z M12.5384615,9.69230769 L10.888,9.69230769 C10.7603846,9.69230769 10.6923077,9.77076923 10.6923077,9.89838462 L10.6923077,11.5384615 L9.30769231,11.5384615 L9.30769231,9.91823077 C9.30769231,9.79061538 9.22623077,9.69230769 9.09861538,9.69230769 L7.46153846,9.69230769 L7.46153846,8.30769231 L9.124,8.30769231 C9.25161538,8.30769231 9.30769231,8.259 9.30769231,8.13138462 L9.30769231,6.46153846 L10.6923077,6.46153846 L10.6923077,8.13138462 C10.6923077,8.27884615 10.786,8.30769231 10.9191538,8.30769231 L12.5384615,8.30769231 L12.5384615,9.69230769 Z" id="Shape"></path>
            <path d="M10,4 C7.79448367,4 6,6.01879413 6,8.5 C6,10.9812059 7.79448367,13 10,13 C12.2057195,13 14,10.9812059 14,8.5 C14,6.01879413 12.2055163,4 10,4 Z M10,12.5508457 C8.01452735,12.5508457 6.39924823,10.7336567 6.39924823,8.5 C6.39924823,6.26611469 8.01452735,4.44892569 10,4.44892569 C11.9856758,4.44892569 13.6009549,6.26611469 13.6009549,8.5 C13.6007518,10.7336567 11.9854726,12.5508457 10,12.5508457 Z" id="Shape"></path>
            <path d="M19.1462222,2.30769231 L8.04644444,2.30769231 C7.79733333,2.30769231 7.56755556,2.14176923 7.44666667,1.91561538 L6.72822222,0.588461538 C6.52888889,0.215769231 6.15022222,0 5.73955556,0 L1.076,0 C0.543777778,0 0,0.392307692 0,0.945 L0,14.0552308 C0,14.6076923 0.543777778,15 1.076,15 L19.1462222,15 C19.6784444,15 20,14.6076923 20,14.055 L20,3.25846154 C20,2.706 19.6784444,2.30769231 19.1462222,2.30769231 Z M19.5555556,14.055 C19.5555556,14.3529231 19.4331111,14.5384615 19.1462222,14.5384615 L1.076,14.5384615 C0.789111111,14.5384615 0.444444444,14.3529231 0.444444444,14.055 L0.444444444,0.945 C0.444444444,0.647076923 0.789111111,0.461538462 1.076,0.461538462 L5.73955556,0.461538462 C5.98866667,0.461538462 6.21844444,0.573461538 6.33955556,0.799615385 L7.058,2.15376923 C7.25733333,2.52646154 7.636,2.76923077 8.04644444,2.76923077 L19.1462222,2.76923077 C19.4331111,2.76923077 19.5555556,2.96053846 19.5555556,3.25846154 L19.5555556,14.055 Z" id="Shape"></path>
        </g>
    </g>
</svg>