<?xml version="1.0" encoding="UTF-8"?>
<svg width="19px" height="21px" viewBox="0 0 19 21" version="1.1" xmlns="http://www.w3.org/2000/svg" xmlns:xlink="http://www.w3.org/1999/xlink">
    <title>Profile</title>
    <defs>
        <filter id="filter-1">
            <feColorMatrix in="SourceGraphic" type="matrix" values="0 0 0 0 0.015686 0 0 0 0 0.733333 0 0 0 0 0.749020 0 0 0 1.000000 0"></feColorMatrix>
        </filter>
    </defs>
    <g id="Profile" stroke="none" stroke-width="1" fill="none" fill-rule="evenodd">
        <g filter="url(#filter-1)" id="noun_person_2797865">
            <g>
                <path d="M19,21 L0,21 L0,20.7182985 C0,16.8840597 2.12582079,13.4461749 5.45456631,11.8283633 C3.95036559,10.568876 3.06506093,8.66936295 3.06506093,6.65463399 C3.06506093,2.98519055 5.95197133,0 9.5,0 C13.0480287,0 15.9349391,2.98547225 15.9349391,6.65491569 C15.9349391,8.66964465 15.0496344,10.5691577 13.5454337,11.828645 C16.8744516,13.4464566 19,16.8843414 19,20.7185802 L19,21 Z M0.548888889,20.436597 L18.4511111,20.436597 C18.3454194,16.7829289 16.1926308,13.551813 12.9058351,12.1526017 L12.4432975,11.9556924 L12.8543513,11.6607509 C14.4421792,10.5207051 15.3904086,8.64936215 15.3904086,6.65463399 C15.3904086,3.29590728 12.7481147,0.563402954 9.5002724,0.563402954 C6.25243011,0.563402954 3.6101362,3.29590728 3.6101362,6.65463399 C3.6101362,8.64908045 4.55809319,10.5204234 6.14619355,11.6607509 L6.55724731,11.9556924 L6.09470968,12.1526017 C2.80736918,13.551813 0.654308244,16.7829289 0.548888889,20.436597 Z" id="Shape" fill="#000000" fill-rule="nonzero"></path>
            </g>
        </g>
    </g>
</svg>