<?xml version="1.0" encoding="UTF-8"?>
<svg width="29px" height="29px" viewBox="0 0 29 29" version="1.1" xmlns="http://www.w3.org/2000/svg" xmlns:xlink="http://www.w3.org/1999/xlink">
    <title>Message</title>
    <defs>
        <filter id="filter-1">
            <feColorMatrix in="SourceGraphic" type="matrix" values="0 0 0 0 0.015686 0 0 0 0 0.733333 0 0 0 0 0.749020 0 0 0 1.000000 0"></feColorMatrix>
        </filter>
    </defs>
    <g id="Message" stroke="none" stroke-width="1" fill="none" fill-rule="evenodd">
        <g filter="url(#filter-1)" id="noun_message_865804">
            <g>
                <path d="M5.64935086,29 C5.02534082,29 4.51948074,28.4750509 4.51948074,27.8274933 L4.51948074,22.1603774 C1.88876879,21.6031217 -0.000547758187,19.2013726 1.19126943e-07,16.4150943 L1.19126943e-07,5.86253369 C1.19126943e-07,2.62474574 2.52930067,0 5.64935086,0 L23.3506495,0 C26.4706997,0 29.0000001,2.62474574 29.0000001,5.86253369 L29.0000001,16.4150943 C29.0000001,17.9699349 28.4048024,19.4610933 27.3453436,20.5605317 C26.2858849,21.65997 24.8489504,22.277628 23.3506495,22.277628 L12.5227275,22.277628 L6.45155865,28.6521563 C6.2395687,28.8745004 5.95075842,29 5.64935086,29 L5.64935086,29 Z M5.64935086,2.34501348 C3.77732075,2.34501348 2.25974049,3.91986092 2.25974049,5.86253369 L2.25974049,16.4150943 C2.25974049,18.3577671 3.77732075,19.9326146 5.64935086,19.9326146 C6.2733609,19.9326146 6.77922099,20.4575637 6.77922099,21.1051213 L6.77922099,24.9743935 L11.2497405,20.2843666 C11.4611069,20.060587 11.7499951,19.9339154 12.0519482,19.9326146 L23.3506495,19.9326146 C25.2226796,19.9326146 26.7402599,18.3577671 26.7402599,16.4150943 L26.7402599,5.86253369 C26.7402599,3.91986092 25.2226796,2.34501348 23.3506495,2.34501348 L5.64935086,2.34501348 Z" id="Shape" fill="#000000" fill-rule="nonzero"></path>
            </g>
        </g>
    </g>
</svg>