<?xml version="1.0" encoding="UTF-8"?>
<svg width="66px" height="74px" viewBox="0 0 66 74" version="1.1" xmlns="http://www.w3.org/2000/svg" xmlns:xlink="http://www.w3.org/1999/xlink">
    <title>Needle</title>
    <g id="Needle" stroke="none" stroke-width="1" fill="none" fill-rule="evenodd">
        <g transform="translate(33.000000, 37.000000) scale(-1, 1) rotate(35.000000) translate(-33.000000, -37.000000) translate(17.000000, 4.000000)" stroke="#04BBBF">
            <path d="M0.628734875,4.02416864 C5.40253988,0.502278286 8.0653927,-0.144182438 10.5067023,1.20618391 C12.948012,2.55655026 16.7070306,6.68513272 16.7070306,6.68513272 C16.7070306,6.68513272 20.4464332,10.8287038 23.2447212,9.540377 C26.0430092,8.25205017 30.3221974,10.9053858 31.4210463,10.9053858" id="Path-3"></path>
            <path d="M23.7935732,1.75709286 C24.7148742,1.7594655 25.5173394,2.08478653 26.0918218,2.62500291 C26.6640085,3.16306049 27.0054592,3.91163491 27.0113358,4.73967329 L27.0113358,4.73967329 L24.249528,49.7346154 L20.994273,4.94638078 C20.9431955,4.11637218 21.233381,3.3442372 21.743838,2.766835 C22.2498709,2.19443714 22.9723737,1.8134112 23.7935732,1.75709286 Z" id="Rectangle" stroke-width="1.5"></path>
            <path d="M23.7950034,6.51714626 C24.2248771,6.51728944 24.5861597,6.64278487 24.8416543,6.86437415 C25.0856783,7.07601504 25.2257156,7.37329709 25.234183,7.70279201 L25.234183,7.70279201 L24.4949747,12.9996429 L22.7778175,7.90918831 C22.7296037,7.57169192 22.8227518,7.24660379 23.0123274,6.99383632 C23.1961754,6.74870556 23.4707124,6.57159151 23.7950034,6.51714626 Z" id="Rectangle-Copy-8"></path>
        </g>
    </g>
</svg>