<?xml version="1.0" encoding="UTF-8"?>
<svg width="30px" height="30px" viewBox="0 0 30 30" version="1.1" xmlns="http://www.w3.org/2000/svg" xmlns:xlink="http://www.w3.org/1999/xlink">
    <title>Phone</title>
    <defs>
        <filter id="filter-1">
            <feColorMatrix in="SourceGraphic" type="matrix" values="0 0 0 0 0.015686 0 0 0 0 0.733333 0 0 0 0 0.749020 0 0 0 1.000000 0"></feColorMatrix>
        </filter>
    </defs>
    <g id="Phone" stroke="none" stroke-width="1" fill="none" fill-rule="evenodd">
        <g filter="url(#filter-1)" id="noun_Phone_2663543">
            <g>
                <path d="M22.4482422,29.9960938 C21.4702149,29.9960938 20.4824219,29.8720704 19.4956055,29.6240235 C12.3579102,27.8271485 2.1728516,17.6416016 0.3759766,10.5039063 C-0.3496094,7.6240234 -0.0092773,4.7265625 1.359375,2.1269531 C1.9550781,0.9951172 3.019043,0.2363281 4.2788086,0.0449218 C5.5263672,-0.1416016 6.7587891,0.2597656 7.6542969,1.1552734 L10.5737305,4.0751953 C11.7236328,5.2246094 12.0566407,6.9824219 11.4023438,8.4482422 C11.0595704,9.2177735 10.6225586,9.8710938 10.1025391,10.3896485 C9.7460938,10.7470704 9.6748047,11.3369141 9.8911133,12.1435548 C10.6772461,15.0791017 14.9204102,19.3222657 17.8564453,20.1093751 C18.6640625,20.3251954 19.253418,20.2548829 19.6098633,19.897461 C20.1303711,19.3769532 20.7841797,18.9394532 21.5527344,18.5976563 C23.0180664,17.9414063 24.7749024,18.2763672 25.925293,19.4257813 L28.8447266,22.3457032 L28.8447266,22.3457032 C29.7402344,23.241211 30.1445313,24.4716798 29.9550782,25.7216798 C29.7641602,26.9804689 29.0048829,28.044922 27.8730469,28.6406251 C26.1635742,29.5410156 24.3256836,29.9960938 22.4482422,29.9960938 Z M4.8754883,2 C4.7773438,2 4.6782227,2.0078125 4.5786133,2.0224609 C3.9541016,2.1171875 3.4257813,2.4951172 3.1289063,3.0585937 C1.9775391,5.2460937 1.7036133,7.586914 2.3154297,10.015625 C3.9428711,16.4794922 13.5200195,26.0576172 19.9838867,27.6845703 C22.4130859,28.296875 24.753418,28.0214844 26.9414062,26.8710937 C27.505371,26.5742187 27.8828125,26.0458984 27.977539,25.4208984 C28.0708007,24.8066406 27.871582,24.2011718 27.430664,23.7597656 L24.5112304,20.8398437 C23.9433593,20.2734374 23.0825195,20.1064453 22.3666991,20.4238281 C21.8222655,20.6669922 21.3706053,20.9648437 21.0239257,21.3115234 C20.4062499,21.9287109 19.2661132,22.5566406 17.3383788,22.0410156 C13.6743163,21.0595703 8.9409179,16.3251953 7.9589843,12.6611328 C7.442871,10.734375 8.071289,9.5927734 8.6889648,8.9755859 C9.0346679,8.6298828 9.3330078,8.1787109 9.5756836,7.633789 C9.8950195,6.9189452 9.7275391,6.0576171 9.159668,5.4892577 L6.2402344,2.5693359 C5.8706055,2.2001953 5.3852539,2 4.8754883,2 Z" id="Shape" fill="#000000" fill-rule="nonzero"></path>
            </g>
        </g>
    </g>
</svg>