<?xml version="1.0" encoding="UTF-8"?>
<svg width="84px" height="85px" viewBox="0 0 84 85" version="1.1" xmlns="http://www.w3.org/2000/svg" xmlns:xlink="http://www.w3.org/1999/xlink">
    <title>Stetoscope</title>
    <defs>
        <filter id="filter-1">
            <feColorMatrix in="SourceGraphic" type="matrix" values="0 0 0 0 0.015686 0 0 0 0 0.733333 0 0 0 0 0.749020 0 0 0 1.000000 0"></feColorMatrix>
        </filter>
    </defs>
    <g id="Stetoscope" stroke="none" stroke-width="1" fill="none" fill-rule="evenodd">
        <g id="Group-6">
            <g filter="url(#filter-1)" id="noun_stetoscope_3113365">
                <g transform="translate(0.000000, 3.000000)">
                    <path d="M83.5,23.5 C83.5017041,16.5148149 77.9830578,10.7768966 71.0031054,10.5065673 C64.0231529,10.236238 58.0772508,15.5301411 57.5386962,22.4945344 C57.0001416,29.4589276 62.0614695,35.6040169 69,36.41 L69,47.59 C69,63 59.24,75.5 47.25,75.5 C35.26,75.5 25.5,63 25.5,47.59 L25.5,38.25 C36.22,36.51 44.5,25.63 44.5,12.5 L44.5,3.5 C44.5,1.84314575 43.1568542,0.5 41.5,0.5 L34.5,0.5 C32.8431458,0.5 31.5,1.84314575 31.5,3.5 C31.5,5.15685425 32.8431458,6.5 34.5,6.5 L38.5,6.5 L38.5,12.5 C38.5,23.5 31.32,32.5 22.5,32.5 C13.68,32.5 6.5,23.5 6.5,12.5 L6.5,6.5 L10.5,6.5 C12.1568542,6.5 13.5,5.15685422 13.5,3.5 C13.5,1.84314578 12.1568542,0.5 10.5,0.5 L3.5,0.5 C1.84314575,0.5 0.5,1.84314575 0.5,3.5 L0.5,12.5 C0.5,25.63 8.78,36.5 19.5,38.25 L19.5,47.59 C19.5,66.29 31.95,81.5 47.25,81.5 C62.55,81.5 75,66.29 75,47.59 L75,35.68 C80.1020392,33.7975359 83.4931751,28.9382376 83.5,23.5 Z M70.5,30.5 C66.6340068,30.5 63.5,27.3659932 63.5,23.5 C63.5,19.6340068 66.6340068,16.5 70.5,16.5 C74.3659932,16.5 77.5,19.6340068 77.5,23.5 C77.5,27.3659932 74.3659932,30.5 70.5,30.5 Z" id="Shape" fill="#000000" fill-rule="nonzero"></path>
                </g>
            </g>
            <ellipse id="Oval" fill="#04BBBF" cx="12" cy="6.5" rx="3" ry="6.5"></ellipse>
            <ellipse id="Oval-Copy-7" fill="#04BBBF" cx="34" cy="6.5" rx="3" ry="6.5"></ellipse>
        </g>
    </g>
</svg>